<svg width="1024" height="1024" viewBox="0 0 256 256" xmlns="http://www.w3.org/2000/svg">
  <defs>
    <linearGradient id="bg" x1="0" y1="0" x2="1" y2="1">
      <stop offset="0%" stop-color="#1c1c1e"/>
      <stop offset="100%" stop-color="#2a2a2e"/>
    </linearGradient>
    <radialGradient id="greenGlow" cx="0.5" cy="0.5" r="0.5">
      <stop offset="0%" stop-color="#5fa872" stop-opacity="0.2"/>
      <stop offset="100%" stop-color="#5fa872" stop-opacity="0"/>
    </radialGradient>
    <radialGradient id="orangeGlow" cx="0.5" cy="0.5" r="0.5">
      <stop offset="0%" stop-color="#c9933f" stop-opacity="0.22"/>
      <stop offset="100%" stop-color="#c9933f" stop-opacity="0"/>
    </radialGradient>
    <radialGradient id="redGlow" cx="0.5" cy="0.5" r="0.5">
      <stop offset="0%" stop-color="#ff453a" stop-opacity="0.55"/>
      <stop offset="100%" stop-color="#ff453a" stop-opacity="0"/>
    </radialGradient>
    <radialGradient id="blueGlow" cx="0.5" cy="0.5" r="0.5">
      <stop offset="0%" stop-color="#4a7ab0" stop-opacity="0.22"/>
      <stop offset="100%" stop-color="#4a7ab0" stop-opacity="0"/>
    </radialGradient>
  </defs>

  <rect width="256" height="256" rx="58" fill="url(#bg)"/>

  <g stroke="#ffffff" stroke-opacity="0.09" stroke-width="1.1">
    <line x1="22" y1="104" x2="234" y2="104"/>
    <line x1="22" y1="124" x2="234" y2="124"/>
    <line x1="22" y1="144" x2="234" y2="144"/>
    <line x1="22" y1="164" x2="234" y2="164"/>
    <line x1="22" y1="184" x2="234" y2="184"/>
  </g>
  <line x1="22" y1="144" x2="234" y2="144" stroke="#ffffff" stroke-width="1.5" stroke-opacity="0.22"/>

  <circle cx="48" cy="144" r="28" fill="url(#greenGlow)"/>
  <circle cx="102" cy="104" r="24" fill="url(#orangeGlow)"/>
  <circle cx="156" cy="144" r="54" fill="url(#redGlow)"/>
  <circle cx="210" cy="184" r="24" fill="url(#blueGlow)"/>

  <line x1="48" y1="128" x2="48" y2="68" stroke="#5fa872" stroke-width="2.2" stroke-linecap="round" stroke-opacity="0.85"/>
  <circle cx="48" cy="68" r="2.5" fill="#5fa872"/>
  <circle cx="48" cy="144" r="14" fill="#5fa872"/>

  <line x1="102" y1="90" x2="102" y2="44" stroke="#c9933f" stroke-width="2.2" stroke-linecap="round" stroke-opacity="0.9"/>
  <circle cx="102" cy="44" r="2.5" fill="#c9933f"/>
  <circle cx="102" cy="104" r="13" fill="#c9933f"/>
  <rect x="86" y="208" width="32" height="9" rx="4.5" fill="#c9933f" fill-opacity="0.35"/>

  <line x1="156" y1="122" x2="156" y2="32" stroke="#ff453a" stroke-width="2.8" stroke-linecap="round"/>
  <circle cx="156" cy="32" r="3" fill="#ff453a"/>
  <circle cx="156" cy="144" r="22" fill="#ff453a"/>
  <rect x="132" y="206" width="48" height="11" rx="5.5" fill="#ff453a" fill-opacity="0.5"/>

  <line x1="210" y1="170" x2="210" y2="112" stroke="#4a7ab0" stroke-width="2.2" stroke-linecap="round" stroke-opacity="0.85"/>
  <circle cx="210" cy="112" r="2.5" fill="#4a7ab0"/>
  <circle cx="210" cy="184" r="13" fill="#4a7ab0"/>
</svg>
